<svg width="24" height="15" viewBox="0 0 24 15" fill="none" xmlns="http://www.w3.org/2000/svg">
<path fill-rule="evenodd" clip-rule="evenodd" d="M16.1065 14.882L2.17739 14.9605C1.62023 14.9636 1.04887 14.7611 0.625782 14.3593C0.202694 13.9575 -0.0106764 13.4296 0.000412177 12.8931L0.0646616 2.60489C0.0602733 2.06847 0.280252 1.53814 0.708388 1.13156C1.13652 0.724985 1.69497 0.516082 2.25214 0.512945L16.1813 0.434498C16.7539 0.431272 17.3098 0.6339 17.7329 1.03568L23.1176 6.1493C23.9638 6.95287 23.9555 8.27564 23.0993 9.0888L17.6503 14.2634C17.2221 14.67 16.6637 14.8789 16.1065 14.882ZM20.4069 6.53199C19.7684 5.92566 18.7315 5.9315 18.0854 6.54507C17.4393 7.15863 17.4331 8.14336 18.0716 8.74969C18.7101 9.35602 19.747 9.35018 20.3931 8.73661C21.0392 8.12305 21.0454 7.13832 20.4069 6.53199ZM3.6561 4.38672V4.95068C3.6561 5.34619 3.74399 5.70996 3.91977 6.04199C4.09555 6.37402 4.35434 6.64014 4.69614 6.84033C5.04282 7.04053 5.47006 7.14062 5.97787 7.14062C6.4808 7.14062 6.90317 7.04053 7.24496 6.84033C7.58676 6.64014 7.84311 6.37402 8.01401 6.04199C8.18979 5.70996 8.27768 5.34619 8.27768 4.95068V4.38672C8.27768 3.98145 8.18979 3.61279 8.01401 3.28076C7.84311 2.94873 7.58432 2.68262 7.23764 2.48242C6.89584 2.28223 6.4686 2.18213 5.9559 2.18213C5.45785 2.18213 5.03793 2.28223 4.69614 2.48242C4.35434 2.68262 4.09555 2.94873 3.91977 3.28076C3.74399 3.61279 3.6561 3.98145 3.6561 4.38672ZM5.05502 4.95068V4.38672C5.05502 4.20605 5.08676 4.04004 5.15024 3.88867C5.2186 3.73242 5.32114 3.60791 5.45785 3.51514C5.59457 3.41748 5.76059 3.36865 5.9559 3.36865C6.16586 3.36865 6.33676 3.41748 6.4686 3.51514C6.60532 3.60791 6.70541 3.73242 6.76889 3.88867C6.83725 4.04004 6.87143 4.20605 6.87143 4.38672V4.95068C6.87143 5.12158 6.83969 5.28516 6.77621 5.44141C6.71274 5.59277 6.61508 5.71728 6.48325 5.81494C6.35141 5.90771 6.18051 5.9541 5.97055 5.9541C5.77035 5.9541 5.59946 5.90771 5.45785 5.81494C5.32114 5.71728 5.2186 5.59277 5.15024 5.44141C5.08676 5.28516 5.05502 5.12158 5.05502 4.95068ZM8.75375 10.3853V10.9492C8.75375 11.3496 8.84164 11.7158 9.01743 12.0479C9.19809 12.3799 9.46176 12.646 9.80844 12.8462C10.1551 13.0464 10.5824 13.1465 11.0902 13.1465C11.5931 13.1465 12.0155 13.0464 12.3573 12.8462C12.6991 12.646 12.9554 12.3799 13.1263 12.0479C13.3021 11.7158 13.39 11.3496 13.39 10.9492V10.3853C13.39 9.98486 13.3021 9.61865 13.1263 9.28662C12.9505 8.95459 12.6917 8.68848 12.3499 8.48828C12.0081 8.28809 11.5833 8.18799 11.0755 8.18799C10.5726 8.18799 10.1478 8.28809 9.80112 8.48828C9.45932 8.68848 9.19809 8.95459 9.01743 9.28662C8.84164 9.61865 8.75375 9.98486 8.75375 10.3853ZM10.16 10.9492V10.3853C10.16 10.2095 10.1942 10.0459 10.2625 9.89453C10.3309 9.73828 10.431 9.61377 10.5628 9.521C10.6996 9.42334 10.8705 9.37451 11.0755 9.37451C11.2806 9.37451 11.4491 9.42334 11.5809 9.521C11.7176 9.61377 11.8202 9.73828 11.8885 9.89453C11.9569 10.0459 11.9911 10.2095 11.9911 10.3853V10.9492C11.9911 11.125 11.9642 11.291 11.9105 11.4473C11.8617 11.6035 11.7713 11.728 11.6395 11.8208C11.5077 11.9136 11.3246 11.96 11.0902 11.96C10.9046 11.96 10.7411 11.9136 10.5995 11.8208C10.4627 11.728 10.3553 11.6035 10.2772 11.4473C10.1991 11.291 10.16 11.125 10.16 10.9492ZM6.38803 12.1943L11.5956 3.85938L10.5702 3.31738L5.36264 11.6523L6.38803 12.1943Z" fill="#587DFF"/>
</svg>
